<?xml version="1.0" ?><svg viewBox="0 0 64 64" xmlns="http://www.w3.org/2000/svg"><title/><g data-name="08-Dizziness" id="_08-Dizziness"><polygon points="59 8 60.236 10.633 63 11.056 61 13.106 61.472 16 59 14.633 56.528 16 57 13.106 55 11.056 57.764 10.633 59 8" style="fill:none;stroke:#000;stroke-linejoin:round;stroke-width:2px"/><polygon points="5 3 6.236 5.633 9 6.056 7 8.106 7.472 11 5 9.633 2.528 11 3 8.106 1 6.056 3.764 5.633 5 3" style="fill:none;stroke:#000;stroke-linejoin:round;stroke-width:2px"/><polygon points="47 1 47.927 2.975 50 3.292 48.5 4.829 48.854 7 47 5.975 45.146 7 45.5 4.829 44 3.292 46.073 2.975 47 1" style="fill:none;stroke:#000;stroke-linejoin:round;stroke-width:2px"/><path d="M49,6.4c4.983.9,8.486,2.159,9.611,3.594" style="fill:none;stroke:#000;stroke-linejoin:round;stroke-width:2px"/><path d="M7,7.908C11.9,6.165,20.815,5,31,5a115.536,115.536,0,0,1,14,.8" style="fill:none;stroke:#000;stroke-linejoin:round;stroke-width:2px"/><path d="M57.406,13C53.562,15.331,43.191,17,31,17,15.536,17,3,14.314,3,11a1.615,1.615,0,0,1,.387-1" style="fill:none;stroke:#000;stroke-linejoin:round;stroke-width:2px"/><path d="M28,51s0-5,4-5,4,5,4,5Z" style="fill:none;stroke:#000;stroke-linejoin:round;stroke-width:2px"/><polyline points="25 56 25 60 11 63" style="fill:none;stroke:#000;stroke-linejoin:round;stroke-width:2px"/><polyline points="53 63 39 60 39 53" style="fill:none;stroke:#000;stroke-linejoin:round;stroke-width:2px"/><path d="M25,60s2,2,7,2,7-2,7-2" style="fill:none;stroke:#000;stroke-linejoin:round;stroke-width:2px"/><path d="M18,28v5H16a3,3,0,0,0-3,3v1a7.023,7.023,0,0,0,5,7A14.118,14.118,0,0,0,32,55,14.118,14.118,0,0,0,46,44a7.023,7.023,0,0,0,5-7V36a3,3,0,0,0-3-3H46V29c-4-2-5-8-5-8a7.458,7.458,0,0,1-6,5l1-4s-5,7-12,7V23Z" style="fill:none;stroke:#000;stroke-linejoin:round;stroke-width:2px"/><path d="M53.067,17.005A9.835,9.835,0,0,1,54,21V31.892a4,4,0,0,1-.57,2.058L51,38" style="fill:none;stroke:#000;stroke-linejoin:round;stroke-width:2px"/><path d="M17,14.079q.981-.5,2-1.079c7-4,10-4,14-4,5,0,9,5,9,5s.943-1.885,4.658-1.995A5.449,5.449,0,0,1,50,13.115" style="fill:none;stroke:#000;stroke-linejoin:round;stroke-width:2px"/><path d="M13,39s-3-2-3-8,4-8,4-8a8.613,8.613,0,0,1-8-5,31.874,31.874,0,0,0,4-1.04" style="fill:none;stroke:#000;stroke-linejoin:round;stroke-width:2px"/><path d="M41,36H39.5A1.5,1.5,0,0,0,38,37.5h0A1.5,1.5,0,0,0,39.5,39H40a3,3,0,0,0,3-3h0a3,3,0,0,0-3-3h-.5A4.5,4.5,0,0,0,35,37.5h0A4.5,4.5,0,0,0,39.5,42H40" style="fill:none;stroke:#000;stroke-linejoin:round;stroke-width:2px"/><path d="M27,36H25.5A1.5,1.5,0,0,0,24,37.5h0A1.5,1.5,0,0,0,25.5,39H26a3,3,0,0,0,3-3h0a3,3,0,0,0-3-3h-.5A4.5,4.5,0,0,0,21,37.5h0A4.5,4.5,0,0,0,25.5,42H26" style="fill:none;stroke:#000;stroke-linejoin:round;stroke-width:2px"/><path d="M36,28c0,2.764,2.684,5,6,5" style="fill:none;stroke:#000;stroke-linejoin:round;stroke-width:2px"/><path d="M28,28c0,2.764-2.684,5-6,5" style="fill:none;stroke:#000;stroke-linejoin:round;stroke-width:2px"/></g></svg>